<?xml version="1.0" standalone="no"?><!DOCTYPE svg PUBLIC "-//W3C//DTD SVG 1.1//EN" "http://www.w3.org/Graphics/SVG/1.1/DTD/svg11.dtd"><svg t="1616772377508" class="icon" viewBox="0 0 1024 1024" version="1.1" xmlns="http://www.w3.org/2000/svg" p-id="3142" xmlns:xlink="http://www.w3.org/1999/xlink" width="200" height="200"><defs><style type="text/css"></style></defs><path d="M777.856 318.08C777.856 160.32 646.72 32 485.728 32c-160.96 0-292.096 128.32-292.096 286.08-0.352 117.28 73.6 222.784 186.624 266.432a427.099 427.099 0 0 0-83.84 30.944C173.696 675.136 85.344 790.72 67.872 927.552c-2.592 18.752-3.904 37.664-3.872 56.576l0.256 7.872h486.752c0.864-11.456 2.592-22.816 5.248-33.984a334.293 334.293 0 0 1 12.224-40.96c4.8-14.336 11.84-31.616 22.848-55.744 6.016-12.448 10.88-22.24 13.44-28.48 2.464-5.76 4.672-10.464 6.24-13.856 0.768-5.888 1.28-10.336 2.24-14.72 1.696-10.048 4.16-19.968 7.424-29.632a634.08 634.08 0 0 1 53.152-115.744c7.2-11.872 14.016-22.848 21.12-33.44a426.048 426.048 0 0 0-99.616-39.36 55.296 55.296 0 0 0-4.256-1.536c112.832-43.104 186.88-148.8 186.784-266.464zM948.32 610.4a1919.424 1919.424 0 0 1-12.096 58.144c-4.032 17.984-8.32 36-13.12 53.856l-60.064 32.16c7.2-2.112 14.528-3.872 21.504-6.112 5.856-1.76 11.968-3.52 18.24-5.28 6.208-1.76 11.552-3.2 15.616-5.088l-6.24 23.2a80.736 80.736 0 0 1-4.992 14.56 121.92 121.92 0 0 1-10.624 21.76c-4.032 6.848-7.936 12.48-11.232 17.536a117.408 117.408 0 0 1-13.12 16l-55.008 16 45.216 7.872c-5.856 5.088-12.48 10.016-19.296 15.296-5.856 4.352-12.704 8.96-20.416 13.888a189.695 189.695 0 0 1-24 13.152 71.904 71.904 0 0 1-28.032 6.336c-10.112 0-20.032-0.32-29.184-2.112a179.104 179.104 0 0 1-32.16-7.488c3.296-4.96 6.976-10.304 10.624-16.704 3.296-5.44 7.2-11.424 11.968-18.56 4.768-7.2 9.536-14.976 14.56-23.904 14.144-23.552 28-46.72 41.504-69.536 13.44-22.816 25.536-43.52 36.416-61.632l35.328-60.704c-14.176 15.68-28.832 33.536-44.48 53.184a1212.511 1212.511 0 0 0-44.672 59.136 1546.336 1546.336 0 0 0-50.24 75.296c-3.648 5.76-7.68 12.096-12.064 19.296-4.384 7.168-9.184 14.912-14.208 23.168-4.992 8.224-9.76 16.32-15.264 25.28-5.024 8.64-10.144 17.184-15.296 25.344-11.968 18.944-24.064 38.912-36.8 59.52 0.64-7.936 1.856-15.808 3.68-23.52 2.4-10.4 5.44-20.608 9.184-30.592 4.032-12.192 10.144-26.816 17.824-43.52 5.152-10.304 9.184-18.592 11.744-24.704 2.56-6.112 4.64-10.304 6.08-13.536a28.896 28.896 0 0 1 3.712-7.168c-1.472-1.76-1.824-5.312-0.736-10.304 1.184-6.912 2.88-13.728 5.12-20.352a506.432 506.432 0 0 1 41.44-90.24 604.16 604.16 0 0 1 37.888-56c14.304-18.688 29.44-36.544 45.6-53.856a472.704 472.704 0 0 1 50.208-46.336 299.872 299.872 0 0 1 51.36-33.28c17.12-8.608 33.856-13.536 49.856-14.592 0.96 10.944 0 24.096-2.176 41.248-2.656 16.928-5.44 34.624-9.12 53.92z" p-id="3143" fill="#ffffff"></path></svg>