<?xml version="1.0" standalone="no"?><!DOCTYPE svg PUBLIC "-//W3C//DTD SVG 1.1//EN" "http://www.w3.org/Graphics/SVG/1.1/DTD/svg11.dtd"><svg t="1616773514273" class="icon" viewBox="0 0 1113 1024" version="1.1" xmlns="http://www.w3.org/2000/svg" p-id="14793" xmlns:xlink="http://www.w3.org/1999/xlink" width="217.3828125" height="200"><defs><style type="text/css"></style></defs><path d="M1026.237217 0a86.950957 86.950957 0 0 1 0 173.924174V691.867826a160.278261 160.278261 0 0 1-160.27826 160.278261h-73.906087l89.889391 89.86713a43.475478 43.475478 0 0 1-61.506783 61.484522l-151.351652-151.351652H434.409739l-151.351652 151.373913a43.475478 43.475478 0 1 1-61.484522-61.506783l89.867131-89.86713h-64.066783a160.278261 160.278261 0 0 1-160.278261-160.278261V173.924174a86.950957 86.950957 0 0 1 0-173.924174h939.141565zM530.576696 556.521739h-191.309913a43.475478 43.475478 0 0 0-3.227826 86.817391l3.227826 0.133566h191.309913a43.475478 43.475478 0 1 0 0-86.950957z m243.489391-260.87513H339.266783a43.475478 43.475478 0 0 0-3.227826 86.839652l3.227826 0.133565h434.799304a43.475478 43.475478 0 1 0 0-86.973217z" p-id="14794" fill="#ffffff"></path></svg>